<svg xmlns="http://www.w3.org/2000/svg" version="1.1" xmlns:xlink="http://www.w3.org/1999/xlink" xmlns:svgjs="http://svgjs.dev/svgjs" width="1500" height="1500" viewBox="0 0 1500 1500"><rect width="1500" height="1500" fill="#ffffff"></rect><g transform="matrix(0.6666666666666666,0,0,0.6666666666666666,249.39393939393938,438.5856950067477)"><svg viewBox="0 0 396 247" data-background-color="#ffffff" preserveAspectRatio="xMidYMid meet" height="935" width="1500" xmlns="http://www.w3.org/2000/svg" xmlns:xlink="http://www.w3.org/1999/xlink"><g id="tight-bounds" transform="matrix(1,0,0,1,0.2400000000000091,-0.09999999999999432)"><svg viewBox="0 0 395.52 247.2" height="247.2" width="395.52"><g><svg></svg></g><g><svg viewBox="0 0 395.52 247.2" height="247.2" width="395.52"><mask id="b6723181-e7e0-4bde-bd5e-f5f86b8d4989"><rect width="640" height="400" fill="white"></rect><g transform="matrix(1,0,0,1,79.69432835820895,77.83767862062145)"><svg viewBox="0 0 236.13134328358208 91.5246427587571" height="91.5246427587571" width="236.13134328358208"><g><svg viewBox="0 0 236.13134328358208 91.5246427587571" height="91.5246427587571" width="236.13134328358208"><g><svg viewBox="0 0 236.13134328358208 91.5246427587571" height="91.5246427587571" width="236.13134328358208"><g id="SvgjsG1020"><svg viewBox="0 0 236.13134328358208 91.5246427587571" height="91.5246427587571" width="236.13134328358208" id="SvgjsSvg1019"><g><svg viewBox="0 0 236.13134328358208 91.5246427587571" height="91.5246427587571" width="236.13134328358208"><g transform="matrix(1,0,0,1,0,0)"><svg width="236.13134328358208" viewBox="-1.35 -38.1 106.64999999999999 41.95" height="91.5246427587571" data-palette-color="#65ff4b"><path d="M17.1-34.6L17.1-34.6Q23.05-34.6 27.25-32.15 31.45-29.7 31.45-26.95L31.45-26.95Q31.45-26.2 31.13-25.68 30.8-25.15 30.33-24.93 29.85-24.7 29.3-24.7L29.3-24.7Q28.4-24.7 26.6-25.63 24.8-26.55 22.6-27.48 20.4-28.4 18.55-28.4L18.55-28.4Q15.6-28.4 15.6-26L15.6-26Q15.6-25.25 16.07-24.58 16.55-23.9 17.6-23.18 18.65-22.45 19.65-21.9 20.65-21.35 22.4-20.43 24.15-19.5 25.35-18.8L25.35-18.8Q29.2-16.6 30.75-14.6 32.3-12.6 32.3-10L32.3-10Q32.3 0.35 18.35 0.35L18.35 0.35Q15.6 0.35 13.03-0.2 10.45-0.75 8.53-1.65 6.6-2.55 5.13-3.65 3.65-4.75 2.9-5.9 2.15-7.05 2.15-8.05L2.15-8.05Q2.15-9.15 2.88-9.93 3.6-10.7 5-10.7L5-10.7Q6.05-10.7 10.05-9.38 14.05-8.05 16.5-8.05L16.5-8.05Q18.75-8.05 18.75-9.6L18.75-9.6Q18.75-10.05 18.57-10.43 18.4-10.8 17.98-11.18 17.55-11.55 17.03-11.88 16.5-12.2 15.58-12.7 14.65-13.2 13.73-13.7 12.8-14.2 11.3-15 9.8-15.8 8.4-16.6L8.4-16.6Q6.55-17.65 5.23-19.2 3.9-20.75 3.3-22.28 2.7-23.8 2.7-25.1L2.7-25.1Q2.7-29.3 6.45-31.95 10.2-34.6 17.1-34.6ZM52.6-26.1L52.6-26.1Q50.45-26.1 49.42-24.85 48.4-23.6 48.4-20.4L48.4-20.4 48.4-14.5 56.7-14.5 56.7-20.5Q56.7-22.6 56.2-23.88 55.7-25.15 54.82-25.63 53.95-26.1 52.6-26.1ZM56.7-4.95L56.7-7.6 48.4-7.6 48.4-4.95Q48.4-2.4 47.05-1.2 45.7 0 42.4 0L42.4 0Q41 0 40.1-0.4 39.2-0.8 38.52-1.75 37.85-2.7 37.52-4.53 37.2-6.35 37.02-8.93 36.85-11.5 36.85-15.45L36.85-15.45Q36.85-18.9 37.57-21.78 38.3-24.65 39.52-26.65 40.75-28.65 42.3-30.18 43.85-31.7 45.67-32.55 47.5-33.4 49.22-33.83 50.95-34.25 52.7-34.25L52.7-34.25Q54.8-34.25 56.85-33.68 58.9-33.1 61-31.7 63.1-30.3 64.67-28.23 66.25-26.15 67.25-22.85 68.25-19.55 68.25-15.45L68.25-15.45Q68.25-8.85 67.77-5.68 67.3-2.5 66.17-1.25 65.05 0 62.7 0L62.7 0Q59.4 0 58.05-1.2 56.7-2.4 56.7-4.95L56.7-4.95ZM91.4-25.6L91.4-7.5Q91.4-4.65 90.7-2.98 90-1.3 88.77-0.65 87.55 0 85.55 0L85.55 0Q82.6 0 81.27-1.58 79.95-3.15 79.9-7.15L79.9-7.15 79.8-25.6 75.55-25.6Q72.4-25.6 70.82-26.6 69.25-27.6 69.25-30.15L69.25-30.15Q69.25-31.7 69.87-32.6 70.5-33.5 71.75-33.88 73-34.25 75.1-34.25L75.1-34.25 96.5-34.25Q99.3-34.25 100.55-33.25 101.8-32.25 101.8-29.8L101.8-29.8Q101.8-28.15 101.07-27.23 100.35-26.3 99.15-25.95 97.95-25.6 96.05-25.6L96.05-25.6 91.4-25.6Z" opacity="1" transform="matrix(1,0,0,1,0,0)" fill="black" class="wordmark-text-0" id="SvgjsPath1018" stroke-width="6" stroke="black" stroke-linejoin="round"></path></svg></g></svg></g></svg></g></svg></g></svg></g></svg></g></mask><g transform="matrix(1,0,0,1,79.69432835820895,77.83767862062145)"><svg viewBox="0 0 236.13134328358208 91.5246427587571" height="91.5246427587571" width="236.13134328358208"><g><svg viewBox="0 0 236.13134328358208 91.5246427587571" height="91.5246427587571" width="236.13134328358208"><g><svg viewBox="0 0 236.13134328358208 91.5246427587571" height="91.5246427587571" width="236.13134328358208"><g id="textblocktransform"><svg viewBox="0 0 236.13134328358208 91.5246427587571" height="91.5246427587571" width="236.13134328358208" id="textblock"><g><svg viewBox="0 0 236.13134328358208 91.5246427587571" height="91.5246427587571" width="236.13134328358208"><g transform="matrix(1,0,0,1,0,0)"><svg width="236.13134328358208" viewBox="-1.35 -38.1 106.64999999999999 41.95" height="91.5246427587571" data-palette-color="#65ff4b"><path d="M17.1-34.6L17.1-34.6Q23.05-34.6 27.25-32.15 31.45-29.7 31.45-26.95L31.45-26.95Q31.45-26.2 31.13-25.68 30.8-25.15 30.33-24.93 29.85-24.7 29.3-24.7L29.3-24.7Q28.4-24.7 26.6-25.63 24.8-26.55 22.6-27.48 20.4-28.4 18.55-28.4L18.55-28.4Q15.6-28.4 15.6-26L15.6-26Q15.6-25.25 16.07-24.58 16.55-23.9 17.6-23.18 18.65-22.45 19.65-21.9 20.65-21.35 22.4-20.43 24.15-19.5 25.35-18.8L25.35-18.8Q29.2-16.6 30.75-14.6 32.3-12.6 32.3-10L32.3-10Q32.3 0.35 18.35 0.35L18.35 0.35Q15.6 0.35 13.03-0.2 10.45-0.75 8.53-1.65 6.6-2.55 5.13-3.65 3.65-4.75 2.9-5.9 2.15-7.05 2.15-8.05L2.15-8.05Q2.15-9.15 2.88-9.93 3.6-10.7 5-10.7L5-10.7Q6.05-10.7 10.05-9.38 14.05-8.05 16.5-8.05L16.5-8.05Q18.75-8.05 18.75-9.6L18.75-9.6Q18.75-10.05 18.57-10.43 18.4-10.8 17.98-11.18 17.55-11.55 17.03-11.88 16.5-12.2 15.58-12.7 14.65-13.2 13.73-13.7 12.8-14.2 11.3-15 9.8-15.8 8.4-16.6L8.4-16.6Q6.55-17.65 5.23-19.2 3.9-20.75 3.3-22.28 2.7-23.8 2.7-25.1L2.7-25.1Q2.7-29.3 6.45-31.95 10.2-34.6 17.1-34.6ZM52.6-26.1L52.6-26.1Q50.45-26.1 49.42-24.85 48.4-23.6 48.4-20.4L48.4-20.4 48.4-14.5 56.7-14.5 56.7-20.5Q56.7-22.6 56.2-23.88 55.7-25.15 54.82-25.63 53.95-26.1 52.6-26.1ZM56.7-4.95L56.7-7.6 48.4-7.6 48.4-4.95Q48.4-2.4 47.05-1.2 45.7 0 42.4 0L42.4 0Q41 0 40.1-0.4 39.2-0.8 38.52-1.75 37.85-2.7 37.52-4.53 37.2-6.35 37.02-8.93 36.85-11.5 36.85-15.45L36.85-15.45Q36.85-18.9 37.57-21.78 38.3-24.65 39.52-26.65 40.75-28.65 42.3-30.18 43.85-31.7 45.67-32.55 47.5-33.4 49.22-33.83 50.95-34.25 52.7-34.25L52.7-34.25Q54.8-34.25 56.85-33.68 58.9-33.1 61-31.7 63.1-30.3 64.67-28.23 66.25-26.15 67.25-22.85 68.25-19.55 68.25-15.45L68.25-15.45Q68.25-8.85 67.77-5.68 67.3-2.5 66.17-1.25 65.05 0 62.7 0L62.7 0Q59.4 0 58.05-1.2 56.7-2.4 56.7-4.95L56.7-4.95ZM91.4-25.6L91.4-7.5Q91.4-4.65 90.7-2.98 90-1.3 88.77-0.65 87.55 0 85.55 0L85.55 0Q82.6 0 81.27-1.58 79.95-3.15 79.9-7.15L79.9-7.15 79.8-25.6 75.55-25.6Q72.4-25.6 70.82-26.6 69.25-27.6 69.25-30.15L69.25-30.15Q69.25-31.7 69.87-32.6 70.5-33.5 71.75-33.88 73-34.25 75.1-34.25L75.1-34.25 96.5-34.25Q99.3-34.25 100.55-33.25 101.8-32.25 101.8-29.8L101.8-29.8Q101.8-28.15 101.07-27.23 100.35-26.3 99.15-25.95 97.95-25.6 96.05-25.6L96.05-25.6 91.4-25.6Z" opacity="1" transform="matrix(1,0,0,1,0,0)" fill="#000000" class="wordmark-text-0" data-fill-palette-color="primary" id="text-0"></path></svg></g></svg></g></svg></g></svg></g></svg></g></svg></g><g mask="url(#b6723181-e7e0-4bde-bd5e-f5f86b8d4989)"><g transform="matrix(2.4534720832499497, 0, 0, 2.4534720832499497, 85.3370022013208, 1.0000000000000142)"><svg xmlns="http://www.w3.org/2000/svg" xmlns:xlink="http://www.w3.org/1999/xlink" version="1.1" x="0" y="0" viewBox="4 0.06000000000000005 91.64399999999999 99.94" enable-background="new 0 0 100 100" xml:space="preserve" height="99.94" width="91.64399999999999" class="icon-none" data-fill-palette-color="accent" id="none"><path fill="#000000" d="M50.122 41.041c7.869 0 14.251-6.389 14.251-14.253 0-7.875-6.383-14.25-14.251-14.25-7.868 0-14.249 6.374-14.249 14.25C35.873 34.652 42.254 41.041 50.122 41.041z" data-fill-palette-color="accent"></path><path fill="#000000" d="M27.8 100V87.354l-12.681 3.529c-0.931 0.37-1.942 0.577-2.999 0.577C7.636 91.461 4 87.814 4 83.336c0-1.688 0.512-3.249 1.387-4.544l20.342-27.893c2.209-3.026 5.293-6.396 11.797-6.396h24.594c6.501 0 9.587 3.371 11.793 6.396l20.341 27.893c0.875 1.295 1.39 2.856 1.39 4.544 0 4.479-3.64 8.125-8.12 8.125-1.056 0-2.071-0.207-2.999-0.577l-12.686-3.529V100H27.8zM49.822 91.165L49.822 91.165l16.433-5.437-0.37-0.104c-11.339-3.336-6.924-18.316 4.412-14.972l1.55 0.521V54.258l-22.025 7.195-22.024-7.195v16.916l1.542-0.521c11.345-3.345 15.758 11.636 4.414 14.974l-0.363 0.102L49.822 91.165 49.822 91.165z" data-fill-palette-color="accent"></path><g fill="#65ff4b" data-fill-palette-color="accent"><path fill="#000000" d="M14.6 36.034c0.506 1.087 1.725 1.789 3.105 1.789h0.003c1.378 0 2.597-0.702 3.104-1.789l0.351-0.752h-6.915L14.6 36.034z" data-fill-palette-color="accent"></path><path fill="#000000" d="M21.483 31.167l-7.524-0.001c-0.514 0.001-0.827 0.227-0.998 0.416-0.218 0.24-0.337 0.567-0.336 0.919-0.001 0.377 0.133 0.721 0.376 0.964 0.243 0.244 0.575 0.373 0.96 0.373h7.522c0.787 0 1.336-0.549 1.336-1.336C22.817 31.716 22.269 31.167 21.483 31.167z" data-fill-palette-color="accent"></path><path fill="#000000" d="M22.519 27.223h-9.596c-0.786 0.002-1.334 0.551-1.334 1.337 0 0.787 0.549 1.336 1.334 1.336h9.595c0.787 0 1.336-0.55 1.336-1.335 0.001-0.377-0.133-0.72-0.376-0.965C23.234 27.352 22.903 27.223 22.519 27.223z" data-fill-palette-color="accent"></path><path fill="#000000" d="M26.435 3.586c-2.276-2.273-5.307-3.526-8.534-3.526-6.639 0-12.041 5.401-12.042 12.04 0.001 3.25 1.349 6.41 3.657 8.628 0.597 0.717 0.967 1.685 1.092 4.511 0.041 0.895 0.688 1.52 1.658 1.52 0.001 0 0.003 0 0.005 0 0.448-0.02 0.848-0.198 1.128-0.503 0.278-0.303 0.414-0.704 0.393-1.159-0.146-3.276-0.667-5.042-1.959-6.554-1.771-1.688-2.786-4.036-2.786-6.442 0-4.882 3.971-8.854 8.851-8.854 4.897 0 8.88 3.973 8.88 8.854 0 2.406-1.016 4.755-2.824 6.484-1.254 1.47-1.774 3.235-1.92 6.514-0.041 0.922 0.599 1.621 1.519 1.662l0.083 0.002c0.891 0 1.541-0.626 1.581-1.523 0.126-2.825 0.496-3.793 1.053-4.468 2.35-2.262 3.697-5.422 3.696-8.671C29.964 8.882 28.71 5.859 26.435 3.586zM23.633 26.225L23.633 26.225l0.001 0.008L23.633 26.225z" data-fill-palette-color="accent"></path></g></svg></g></g></svg></g><defs></defs></svg><rect width="395.52" height="247.2" fill="none" stroke="none" visibility="hidden"></rect></g></svg></g></svg>